<svg xmlns:xlink="http://www.w3.org/1999/xlink" xmlns="http://www.w3.org/2000/svg" version="1.1" viewBox="0 0 1080 1080" height="1080px" width="1080px">
    <title>Empty state_waybill</title>
    <defs>
        <linearGradient id="linearGradient-1" y2="49.4954%" x2="-25.0486869%" y1="49.4954%" x1="120.941313%">
            <stop offset="0%" stop-opacity="0" stop-color="#BCBEC0"></stop>
            <stop offset="100%" stop-color="#A1A3A6"></stop>
        </linearGradient>
        <linearGradient id="linearGradient-2" y2="100.079736%" x2="47.7180444%" y1="9.74361973%" x1="51.6935863%">
            <stop offset="0%" stop-color="#F2F2F3"></stop>
            <stop offset="100%" stop-color="#A2A4A7"></stop>
        </linearGradient>
        <linearGradient id="linearGradient-3" y2="99.8533457%" x2="51.713845%" y1="7.4888973%" x1="49.2690373%">
            <stop offset="0%" stop-color="#F1F1F2"></stop>
            <stop offset="100%" stop-color="#A2A4A7"></stop>
        </linearGradient>
        <linearGradient id="linearGradient-4" y2="-44.1493651%" x2="49.8657202%" y1="100.010635%" x1="49.8657202%">
            <stop offset="0%" stop-color="#F7F7F7"></stop>
            <stop offset="100%" stop-color="#DBDCDD"></stop>
        </linearGradient>
        <linearGradient id="linearGradient-5" y2="2.87711651%" x2="49.9950427%" y1="99.6392758%" x1="49.9950427%">
            <stop offset="0%" stop-opacity="0" stop-color="#F2F2F3"></stop>
            <stop offset="100%" stop-color="#EBEBEC"></stop>
        </linearGradient>
        <linearGradient id="linearGradient-6" y2="2.85491453%" x2="50.0012082%" y1="99.7049145%" x1="50.0012082%">
            <stop offset="0%" stop-opacity="0" stop-color="#F2F2F3"></stop>
            <stop offset="100%" stop-color="#EBEBEC"></stop>
        </linearGradient>
        <linearGradient id="linearGradient-7" y2="0.0988387978%" x2="49.9970261%" y1="99.9963798%" x1="49.9970261%">
            <stop offset="0.2903294%" stop-opacity="0" stop-color="#F2F2F3"></stop>
            <stop offset="97.98%" stop-color="#EDEDEE"></stop>
        </linearGradient>
        <linearGradient id="linearGradient-8" y2="99.9858081%" x2="47.0187475%" y1="9.36633848%" x1="52.3452688%">
            <stop offset="0%" stop-color="#F2F2F3"></stop>
            <stop offset="100%" stop-color="#A2A4A7"></stop>
        </linearGradient>
        <linearGradient id="linearGradient-9" y2="99.6659271%" x2="52.4577426%" y1="7.50436304%" x1="48.885635%">
            <stop offset="0%" stop-color="#F1F1F2"></stop>
            <stop offset="100%" stop-color="#A2A4A7"></stop>
        </linearGradient>
        <linearGradient id="linearGradient-10" y2="100.308672%" x2="46.8965965%" y1="9.7865285%" x1="52.2450867%">
            <stop offset="0%" stop-color="#F2F2F3"></stop>
            <stop offset="100%" stop-color="#A2A4A7"></stop>
        </linearGradient>
        <linearGradient id="linearGradient-11" y2="99.6736808%" x2="52.4643686%" y1="7.45308553%" x1="48.767651%">
            <stop offset="0%" stop-color="#F1F1F2"></stop>
            <stop offset="100%" stop-color="#A2A4A7"></stop>
        </linearGradient>
        <linearGradient id="linearGradient-12" y2="100.013323%" x2="49.9822129%" y1="0.0143684912%" x1="49.9822129%">
            <stop offset="0%" stop-color="#F5F6F6"></stop>
            <stop offset="100%" stop-color="#CECFD1"></stop>
        </linearGradient>
        <linearGradient id="linearGradient-13" y2="100.013724%" x2="49.9822129%" y1="0.014787766%" x1="49.9822129%">
            <stop offset="0%" stop-color="#EBEBEC"></stop>
            <stop offset="100%" stop-color="#CECFD1"></stop>
        </linearGradient>
        <linearGradient id="linearGradient-14" y2="100.013596%" x2="49.9336688%" y1="0.0337235357%" x1="49.9336688%">
            <stop offset="0%" stop-color="#EBEBEC"></stop>
            <stop offset="100%" stop-color="#CECFD1"></stop>
        </linearGradient>
        <linearGradient id="linearGradient-15" y2="98.5333412%" x2="49.9452654%" y1="0.457541163%" x1="49.9452654%">
            <stop offset="0%" stop-color="#DFDFE1"></stop>
            <stop offset="100%" stop-color="#F7F7F7"></stop>
        </linearGradient>
        <linearGradient id="linearGradient-16" y2="98.535624%" x2="49.9452654%" y1="0.459823932%" x1="49.9452654%">
            <stop offset="0%" stop-color="#FFFFFF"></stop>
            <stop offset="100%" stop-color="#DCDCDC"></stop>
        </linearGradient>
        <linearGradient id="linearGradient-17" y2="49.9723682%" x2="6.01068176%" y1="49.9994717%" x1="99.9452414%">
            <stop offset="0%" stop-color="#EBEBEC"></stop>
            <stop offset="100%" stop-color="#B5B6B9"></stop>
        </linearGradient>
        <linearGradient id="linearGradient-18" y2="49.9652058%" x2="6.01068176%" y1="49.9923093%" x1="99.9452414%">
            <stop offset="0%" stop-color="#EBEBEC"></stop>
            <stop offset="100%" stop-color="#B5B6B9"></stop>
        </linearGradient>
        <linearGradient id="linearGradient-19" y2="49.8217155%" x2="6.04763623%" y1="50.1376121%" x1="99.9469931%">
            <stop offset="0%" stop-color="#EBEBEC"></stop>
            <stop offset="100%" stop-color="#B5B6B9"></stop>
        </linearGradient>
        <linearGradient id="linearGradient-20" y2="100%" x2="50%" y1="0%" x1="50%">
            <stop offset="0%" stop-color="#E2E3E4"></stop>
            <stop offset="100%" stop-color="#C1C2C5"></stop>
        </linearGradient>
        <linearGradient id="linearGradient-21" y2="100.083775%" x2="49.9166531%" y1="0.0832522817%" x1="49.9166531%">
            <stop offset="0%" stop-color="#ECECED"></stop>
            <stop offset="100%" stop-color="#AAACAF"></stop>
        </linearGradient>
        <linearGradient id="linearGradient-22" y2="17.9831073%" x2="-0.0272826582%" y1="81.4456973%" x1="94.0759519%">
            <stop offset="0%" stop-color="#EBEBEC"></stop>
            <stop offset="100%" stop-color="#B5B6B9"></stop>
        </linearGradient>
        <linearGradient id="linearGradient-23" y2="85.2635953%" x2="85.1869716%" y1="14.9294809%" x1="14.8528572%">
            <stop offset="0%" stop-opacity="0.6357" stop-color="#FFFFFF"></stop>
            <stop offset="100%" stop-opacity="0.09743772" stop-color="#FFFFFF"></stop>
        </linearGradient>
    </defs>
    <g opacity="0.800000012" fill-rule="evenodd" fill="none" stroke-width="1" stroke="none" id="基础组件">
        <g fill-rule="nonzero" id="Empty-state_waybill">
            <g id="暂无运单">
                <g id="编组-14">
                    <rect height="1080" width="1080" y="0" x="0" fill="#FFFFFF" fill-opacity="0" id="矩形"></rect>
                    <ellipse ry="15" rx="148.5" cy="881.7" cx="540" opacity="0.331" fill="url(#linearGradient-1)" id="椭圆形"></ellipse>
                    <g transform="translate(167.280915, 585.933207)" opacity="0.7794" id="编组备份-2">
                        <ellipse ry="5.4" rx="17.4" cy="82.1667915" cx="47.5190856" opacity="0.5988" fill="#888A8F" id="椭圆形_1_"></ellipse>
                        <path opacity="0.5765" fill="url(#linearGradient-2)" id="椭圆形_2_" d="M32.2190856,82.1667915 C37.0190856,84.2667915 60.4190856,47.6667915 63.7190856,38.0667915 C67.0190856,28.4667916 63.4190856,17.6667916 55.6190856,14.3667916 C47.8190856,11.0667916 38.8190856,16.1667916 35.5190856,26.0667916 C32.2190856,35.9667915 27.1190857,80.0667915 32.2190856,82.1667915 Z"></path>
                        <path fill="url(#linearGradient-3)" id="椭圆形_3_" d="M33.1190856,82.1667915 C39.1190856,80.3667915 38.2190856,28.4667916 35.2190856,16.7667916 C32.2190856,5.06679156 22.3190857,-2.13320844 12.7190857,0.56679156 C3.11908572,3.26679156 -1.98091428,14.9667916 0.719085721,26.6667916 C3.41908572,38.3667915 27.1190857,83.9667915 33.1190856,82.1667915 Z"></path>
                    </g>
                    <path opacity="0.7" fill="url(#linearGradient-4)" id="形状结合" d="M255.3,286.2 C254.1,286.2 252.9,286.2 251.7,285.9 C250.2,286.2 248.7,286.2 247.2,286.2 C224.1,286.2 205.5,267.6 205.5,244.2 C205.5,220.8 224.1,202.5 247.2,202.5 C249.9,202.5 252.6,202.8 255,203.1 C264.6,185.1 283.5,172.8 305.4,172.8 C336.6,172.8 362.1,198.3 362.1,229.5 L362.1,229.5 L396,229.5 C411.6,229.5 424.2,242.1 424.2,257.7 C424.2,273.3 411.6,286.2 396,286.2 L255.3,286.2 Z"></path>
                    <g transform="translate(108.000000, 658.800000)" id="编组-2">
                        <path fill="url(#linearGradient-5)" id="路径" d="M0,140.4 C46.8,71.7 91.8,37.2 134.4,37.2 C177,37.2 225.9,71.7 280.8,140.4 L0,140.4 Z"></path>
                        <path fill="url(#linearGradient-6)" id="路径-2" d="M166.2,140.4 C215.7,46.8 268.8,0 325.2,0 C381.6,0 484.2,46.8 633,140.4 L166.2,140.4 Z"></path>
                        <path fill="url(#linearGradient-7)" id="路径-3" d="M864,140.4 C812.4,67.2 763.5,30.6 717.9,30.6 C672.3,30.6 598.5,67.2 496.8,140.4 L864,140.4 Z"></path>
                    </g>
                    <g transform="translate(772.258626, 537.253152)" id="编组-62">
                        <ellipse ry="4.2" rx="13.5" cy="57.9468483" cx="37.7413755" opacity="0.6699" fill="#888A8F" id="椭圆形_4_"></ellipse>
                        <path opacity="0.5765" fill="url(#linearGradient-8)" id="椭圆形_5_" d="M26.0413755,57.9468483 C29.9413755,59.4468483 47.6413755,33.3468483 50.3413755,26.4468484 C53.0413755,19.5468484 50.0413755,12.0468484 44.3413755,9.64684836 C38.6413755,7.24684836 31.4413755,11.1468484 28.7413755,18.0468484 C26.0413755,24.6468484 22.4413755,56.4468483 26.0413755,57.9468483 Z"></path>
                        <path fill="url(#linearGradient-9)" id="椭圆形_6_" d="M25.4413755,57.9468483 C30.2413755,56.7468483 29.3413755,20.1468484 27.2413755,12.0468484 C25.1413755,3.94684836 17.0413755,-1.45315164 9.84137547,0.34684836 C2.64137547,2.14684836 -1.55862453,10.5468484 0.541375469,18.6468484 C2.64137547,26.7468484 20.9413755,59.1468483 25.4413755,57.9468483 Z"></path>
                    </g>
                    <g transform="translate(796.611630, 788.332341)" opacity="0.8969" id="编组">
                        <ellipse ry="5.4" rx="17.7" cy="97.2676599" cx="56.2883712" opacity="0.5969" fill="#888A8F" id="椭圆形_7_"></ellipse>
                        <path opacity="0.5765" fill="url(#linearGradient-10)" id="椭圆形_8_" d="M43.6883712,98.1676599 C49.9883712,100.56766 80.2883712,56.4676599 84.7883712,44.7676599 C89.2883712,33.0676599 84.4883712,20.1676598 74.2883712,16.2676598 C64.0883712,12.3676598 52.3883712,18.6676598 47.8883712,30.3676599 C43.3883712,42.0676599 37.3883712,95.7676599 43.6883712,98.1676599 Z"></path>
                        <path fill="url(#linearGradient-11)" id="椭圆形_9_" d="M43.6883712,98.4676599 C51.7883712,96.3676599 50.5883712,34.2676599 46.6883712,20.4676598 C42.7883712,6.66765978 29.2883711,-2.63234023 16.6883711,0.667659768 C4.08837108,3.96765978 -2.81162892,18.0676598 1.08837108,32.1676599 C4.98837108,46.2676599 35.5883712,100.56766 43.6883712,98.4676599 Z"></path>
                    </g>
                </g>
                <g transform="translate(315.900000, 340.200000)" id="编组-18">
                    <g id="编组-4">
                        <path fill="url(#linearGradient-12)" id="矩形_1_" d="M145.2,0 L372.6,0 C402.3,0 426.6,24.3 426.6,54 L426.6,351.3 C426.6,411 378.3,459.3 318.6,459.3 L91.2,459.3 L91.2,459.3 L91.2,54 C91.2,24.3 115.2,0 145.2,0 Z"></path>
                        <path fill="url(#linearGradient-13)" id="矩形备份-10" d="M145.2,8.1 L372.6,8.1 C402.3,8.1 426.6,32.4 426.6,62.1 L426.6,351.3 C426.6,411 378.3,459.3 318.6,459.3 L91.2,459.3 L91.2,459.3 L91.2,62.1 C91.2,32.4 115.2,8.1 145.2,8.1 Z"></path>
                        <path fill="url(#linearGradient-14)" id="矩形_2_" d="M54,177.6 L91.2,177.6 L91.2,177.6 L91.2,459.3 L54,459.3 C24.3,459.3 0,435 0,405.3 L0,231.6 C0,201.9 24.3,177.6 54,177.6 Z"></path>
                        <g transform="translate(115.038204, 25.997850)" id="矩形备份-19">
                            <g fill="url(#linearGradient-15)" id="蒙版">
                                <path id="path-20" d="M32.4,0 L255.3,0 C273.3,0 287.7,14.4 287.7,32.4 L287.7,315.6 C287.7,366.3 246.6,407.4 195.9,407.4 L0,407.4 L0,407.4 L0,32.4 C0,14.4 14.4,0 32.4,0 Z"></path>
                            </g>
                            <g fill="url(#linearGradient-16)" transform="translate(0.000000, 8.100000)" id="Clipped">
                                <path id="路径_1_" d="M32.4,-7.99360578e-15 L255.3,-7.99360578e-15 C273.3,-7.99360578e-15 287.7,14.4 287.7,32.4 L287.7,315.6 C287.7,366.3 246.6,407.4 195.9,407.4 L0,407.4 L0,407.4 L0,32.4 C0,14.4 14.4,-7.99360578e-15 32.4,-7.99360578e-15 Z"></path>
                            </g>
                        </g>
                        <path opacity="0.5973" fill="url(#linearGradient-17)" id="矩形_3_" d="M178.5,86.7 L359.7,86.7 C368.1,86.7 375,93.6 375,102 L375,102 C375,110.4 368.1,117.3 359.7,117.3 L178.5,117.3 C170.1,117.3 163.2,110.4 163.2,102 L163.2,102 C163.5,93.3 170.1,86.7 178.5,86.7 Z"></path>
                        <path opacity="0.5973" fill="url(#linearGradient-18)" id="矩形备份" d="M178.5,151.8 L359.7,151.8 C368.1,151.8 375,158.7 375,167.1 L375,167.1 C375,175.5 368.1,182.4 359.7,182.4 L178.5,182.4 C170.1,182.4 163.2,175.5 163.2,167.1 L163.2,167.1 C163.5,158.4 170.1,151.8 178.5,151.8 Z"></path>
                        <path opacity="0.5973" fill="url(#linearGradient-19)" id="矩形备份-2" d="M178.5,216.6 L262.5,216.6 C270.9,216.6 277.8,223.5 277.8,231.9 L277.8,231.9 C277.8,240.3 270.9,247.2 262.5,247.2 L178.5,247.2 C170.1,247.2 163.2,240.3 163.2,231.9 L163.2,231.9 C163.5,223.5 170.1,216.6 178.5,216.6 Z"></path>
                        <g fill="url(#linearGradient-20)" transform="translate(0.000000, 177.651960)" id="蒙版_1_">
                            <path id="path-25" d="M54,0 L91.2,0 L91.2,0 L91.2,236.1 C91.2,261.3 70.8,281.7 45.6,281.7 C20.4,281.7 0,261.3 0,236.1 L0,54 C0,24.3 24.3,0 54,0 Z"></path>
                        </g>
                    </g>
                    <g transform="translate(184.732395, 214.254831)" id="编组-6">
                        <path fill="url(#linearGradient-21)" id="形状结合_1_" d="M30.7126029,30.825 C71.8126029,-10.275 138.112603,-10.275 179.212603,30.825 C220.312603,71.925 220.312603,138.225 179.212603,179.025 C138.112603,219.825 71.8126029,220.125 30.7126029,179.025 C-10.3873969,137.925 -10.0873969,71.925 30.7126029,30.825 Z M45.7126029,45.825 C13.0126031,78.525 13.0126031,131.625 45.7126029,164.325 C78.4126029,197.025 131.512603,197.025 164.512603,164.325 C197.512603,131.625 197.212603,78.525 164.512603,45.825 C131.812603,13.125 78.4126029,13.125 45.7126029,45.825 Z"></path>
                        <path fill="url(#linearGradient-22)" id="形状结合_2_" d="M182.812603,168.225 L201.412603,186.825 L203.212603,185.025 C206.512603,181.725 211.612603,181.725 214.612603,185.025 L294.712603,265.125 C297.712603,268.125 298.012603,272.925 295.012603,276.225 L294.712603,276.525 C294.712603,276.525 294.712603,276.525 294.712603,276.525 L276.412603,294.825 C273.112603,298.125 268.012603,298.125 265.012603,294.825 L184.912603,214.725 C181.912603,211.725 181.612603,206.925 184.612603,203.625 L184.912603,203.325 C184.912603,203.325 184.912603,203.325 184.912603,203.325 L186.712603,201.525 L168.112603,182.925 L182.812603,168.225 Z"></path>
                        <circle r="84" cy="105.225" cx="105.112603" fill="url(#linearGradient-23)" id="椭圆形_10_"></circle>
                    </g>
                </g>
            </g>
        </g>
    </g>
</svg>